<svg width="50" height="50" viewBox="0 0 150 150" fill="none" xmlns="http://www.w3.org/2000/svg">

    <!--    item-->
    <g id="arrow-go-right">
        <path id="Vector" fill-rule="evenodd" clip-rule="evenodd"
              d="M0.95189 1.42649C2.2208 -0.219474 4.27891 -0.219474 5.54809 1.42649L25.0483 26.7152C26.3172 28.3608 26.3172 31.0298 25.0483 32.6758L5.54809 57.9643C4.27891 59.6099 2.2208 59.6099 0.95189 57.9643C-0.317297 56.3184 -0.317297 53.6494 0.95189 52.0038L18.1539 29.6953L0.95189 7.38708C-0.317297 5.74108 -0.317297 3.07248 0.95189 1.42649Z"
              fill="#24335C"/>
    </g>
    <g id="moon">
        <path d="m0 0h24v24h-24z" fill="#fff" opacity="0"/>
        <path d="m12.3 22h-.1a10.31 10.31 0 0 1 -7.34-3.15 10.46 10.46 0 0 1 -.26-14 10.13 10.13 0 0 1 4-2.74 1 1 0 0 1 1.06.22 1 1 0 0 1 .24 1 8.4 8.4 0 0 0 1.94 8.81 8.47 8.47 0 0 0 8.83 1.94 1 1 0 0 1 1.27 1.29 10.16 10.16 0 0 1 -2.34 3.63 10.28 10.28 0 0 1 -7.3 3z"
              fill="#353535"/>
    </g>
    <g id="x">
        <path d="M73.2847 20.9092L85.4554 33.0798L33.7689 84.7663L21.5983 72.5956L73.2847 20.9092ZM33.251 19.4073L88.1485 74.3047L75.0456 87.4076L20.1481 32.5102L33.251 19.4073Z"
              fill="white"/>
    </g>
    <g id="ellipse">
        <circle cx="76" cy="76" r="63.5" stroke="white" stroke-width="25"/>
    </g>
    <g id="arrow-right">
        <path fill-rule="evenodd" clip-rule="evenodd"
              d="M2.33325 14.0002C2.33325 13.3559 2.85559 12.8335 3.49991 12.8335H24.4999C25.1442 12.8335 25.6666 13.3559 25.6666 14.0002C25.6666 14.6446 25.1442 15.1669 24.4999 15.1669H3.49991C2.85559 15.1669 2.33325 14.6446 2.33325 14.0002Z"
              fill="white"/>
        <path fill-rule="evenodd" clip-rule="evenodd"
              d="M16.6752 6.1752C17.1307 5.71959 17.8695 5.71959 18.3251 6.1752L25.3251 13.1753C25.7806 13.6308 25.7806 14.3696 25.3251 14.8252L18.3251 21.8252C17.8695 22.2807 17.1307 22.2807 16.6752 21.8252C16.2196 21.3696 16.2196 20.6308 16.6752 20.1753L22.8502 14.0002L16.6752 7.82512C16.2196 7.3695 16.2196 6.63082 16.6752 6.1752Z"
              fill="white"/>
    </g>
    <g id="dot">
        <path fill-rule="evenodd" clip-rule="evenodd"
              d="M8.8855 5.42628C8.8855 2.91605 6.9753 0.881348 4.61998 0.881347C2.26407 0.881347 0.354462 2.91605 0.354461 5.42628C0.354461 7.93651 2.26407 9.97121 4.61998 9.97121C6.9753 9.97121 8.8855 7.93651 8.8855 5.42628Z"
              fill="white"/>
    </g>
    <g id="gradient-dot">
        <circle cx="9" cy="9" r="9" fill="#D9D9D9"/>
        <circle cx="9" cy="9" r="9" fill="url(#paint0_linear_11_6356)"/>
        <defs>
            <linearGradient id="paint0_linear_11_6356" x1="9" y1="0" x2="9" y2="18" gradientUnits="userSpaceOnUse">
                <stop stop-color="#A6BCFA"/>
                <stop offset="1" stop-color="#2157F2"/>
            </linearGradient>
        </defs>
    </g>
    <!--    social-->
    <g id="wa-green">
        <g fill="#00d95f">
            <path d="m22.8906 66.8405 3.2847-12.2024c-2.649-4.7534-3.4906-10.3003-2.3704-15.6227s4.1271-10.0634 8.4689-13.353c4.3418-3.2895 9.7273-4.907 15.1683-4.5556 5.4409.3514 10.5723 2.6482 14.4525 6.4688 3.8803 3.8206 6.2491 8.9088 6.6718 14.3309.4226 5.4221-1.1291 10.8143-4.3706 15.1873s-7.9553 7.4333-13.2763 8.6195c-5.3211 1.1861-10.8925.4185-15.6919-2.162zm12.9318-7.8555.763.4515c3.4763 2.0553 7.5366 2.9058 11.5482 2.419 4.0115-.4868 7.7489-2.2836 10.6298-5.1103s4.7434-6.5246 5.2973-10.5173c.5539-3.9928-.2319-8.0562-2.235-11.557s-5.1109-6.2424-8.8392-7.7975c-3.7283-1.555-7.8675-1.8362-11.7728-.7998-3.9052 1.0364-7.357 3.3323-9.8175 6.5299-2.4605 3.1975-3.7915 7.1171-3.7855 11.1479-.0032 3.3423.9234 6.6198 2.6769 9.4678l.4785.7869-1.8363 6.8106z"/>
            <path clip-rule="evenodd"
                  d="m54.3404 46.8847c-.4473-.3598-.971-.6131-1.5313-.7405-.5602-.1274-1.1422-.1256-1.7017.0053-.8405.3482-1.3837 1.6639-1.9268 2.3218-.1145.1577-.2828.2683-.4733.311-.1905.0428-.39.0147-.5612-.0789-3.0774-1.2022-5.6568-3.4069-7.3194-6.2559-.1419-.1778-.209-.4035-.1873-.6297.0218-.2262.1306-.4351.3036-.5828.6058-.5982 1.0506-1.3391 1.2932-2.1541.0539-.8991-.1526-1.7946-.5948-2.5798-.3419-1.1009-.9926-2.0811-1.8751-2.8249-.4552-.2042-.96-.2726-1.4533-.1971s-.9542.2918-1.3271.6228c-.6473.557-1.161 1.2518-1.5034 2.0331-.3425.7813-.5048 1.6293-.4751 2.4815.0019.4786.0628.9551.181 1.4189.3003 1.1143.7621 2.179 1.3708 3.1602.4391.7517.9183 1.4793 1.4354 2.1799 1.6805 2.3012 3.793 4.255 6.2202 5.7529 1.218.7613 2.5197 1.3802 3.8795 1.8446 1.4126.6387 2.9722.8838 4.5132.7094.878-.1325 1.7099-.4783 2.4225-1.0069s1.284-1.2237 1.664-2.0243c.2232-.4837.291-1.0243.1939-1.5479-.2327-1.0706-1.6682-1.7026-2.5475-2.2186z"
                  fill-rule="evenodd"/>
        </g>
    </g>
    <g id="wa-white">
        <g fill="#fff">
            <path d="m22.8906 66.9759 3.2847-12.2132c-2.649-4.7577-3.4906-10.3095-2.3704-15.6366 1.1202-5.3272 4.1271-10.0724 8.4689-13.3649 4.3418-3.2924 9.7273-4.9113 15.1683-4.5596 5.4409.3517 10.5723 2.6505 14.4525 6.4745 3.8803 3.824 6.2491 8.9167 6.6718 14.3436.4226 5.4269-1.1291 10.824-4.3706 15.2009-3.2415 4.3768-7.9553 7.4399-13.2763 8.6271-5.3211 1.1872-10.8925.4189-15.6919-2.1639zm12.9318-7.8624.763.4518c3.4763 2.0571 7.5366 2.9084 11.5482 2.4212 4.0115-.4873 7.7489-2.2856 10.6298-5.1148 2.8809-2.8293 4.7434-6.5304 5.2973-10.5267.5539-3.9964-.2319-8.0634-2.235-11.5673s-5.1109-6.2479-8.8392-7.8044c-3.7283-1.5564-7.8675-1.8379-11.7728-.8005-3.9052 1.0373-7.357 3.3353-9.8175 6.5357s-3.7915 7.1234-3.7855 11.1578c-.0032 3.3452.9234 6.6257 2.6769 9.4762l.4785.7876-1.8363 6.8167z"/>
            <path clip-rule="evenodd"
                  d="m54.3404 47.0031c-.4473-.3602-.971-.6137-1.5313-.7412-.5602-.1275-1.1422-.1257-1.7017.0053-.8405.3486-1.3837 1.6654-1.9268 2.3239-.1145.1578-.2828.2685-.4733.3113s-.39.0147-.5612-.079c-3.0774-1.2032-5.6568-3.4099-7.3194-6.2615-.1419-.1779-.209-.4039-.1873-.6302.0218-.2264.1306-.4355.3036-.5834.6058-.5987 1.0506-1.3402 1.2932-2.156.0539-.8998-.1526-1.7961-.5948-2.5821-.3419-1.1018-.9926-2.0829-1.8751-2.8273-.4552-.2044-.96-.2729-1.4533-.1973s-.9542.292-1.3271.6233c-.6473.5575-1.161 1.2529-1.5034 2.0349-.3425.7821-.5048 1.6308-.4751 2.4837.0019.479.0628.956.181 1.4202.3003 1.1153.7621 2.1809 1.3708 3.163.4391.7523.9183 1.4807 1.4354 2.1819 1.6805 2.3032 3.793 4.2587 6.2202 5.758 1.218.7619 2.5197 1.3814 3.8795 1.8462 1.4126.6392 2.9722.8846 4.5132.71.878-.1326 1.7099-.4787 2.4225-1.0078.7126-.529 1.284-1.2248 1.664-2.0261.2232-.484.291-1.0252.1939-1.5492-.2327-1.0716-1.6682-1.7042-2.5475-2.2206z"
                  fill-rule="evenodd"/>
        </g>
    </g>
    <g id="instagram">
        <path d="M13.0052 2.34253C9.53333 2.34253 9.12579 2.35801 7.75357 2.41992C6.48452 2.47668 5.79841 2.68823 5.33928 2.86882C4.73055 3.10617 4.29722 3.3848 3.84325 3.83886C3.38929 4.29292 3.10556 4.72633 2.87341 5.33519C2.69802 5.7944 2.48135 6.48065 2.4246 7.74995C2.3627 9.12245 2.34722 9.53007 2.34722 13.0026C2.34722 16.4751 2.3627 16.8827 2.4246 18.2552C2.48135 19.5245 2.69286 20.2108 2.87341 20.67C3.11071 21.2788 3.38929 21.7122 3.84325 22.1663C4.29722 22.6204 4.73055 22.9041 5.33928 23.1363C5.79841 23.3118 6.48452 23.5285 7.75357 23.5852C9.12579 23.6472 9.53333 23.6626 13.0052 23.6626C16.477 23.6626 16.8845 23.6472 18.2567 23.5852C19.5258 23.5285 20.2119 23.3169 20.671 23.1363C21.2798 22.899 21.7131 22.6204 22.1671 22.1663C22.621 21.7122 22.9048 21.2788 23.1369 20.67C23.3123 20.2108 23.529 19.5245 23.5857 18.2552C23.6476 16.8827 23.6631 16.4751 23.6631 13.0026C23.6631 9.53007 23.6476 9.12245 23.5857 7.74995C23.529 6.48065 23.3175 5.7944 23.1369 5.33519C22.8996 4.72633 22.621 4.29292 22.1671 3.83886C21.7131 3.3848 21.2798 3.10101 20.671 2.86882C20.2119 2.69339 19.5258 2.47668 18.2567 2.41992C16.8845 2.35285 16.4718 2.34253 13.0052 2.34253ZM13.0052 0C16.5337 0 16.9774 0.0154793 18.3651 0.0773963C19.7476 0.139313 20.6917 0.361183 21.5171 0.681087C22.3734 1.01131 23.0956 1.46021 23.8179 2.18258C24.5401 2.90494 24.9837 3.63247 25.319 4.48383C25.6389 5.30939 25.8607 6.25362 25.9226 7.6416C25.9845 9.02441 26 9.46815 26 12.9974C26 16.5267 25.9845 16.9704 25.9226 18.3584C25.8607 19.7412 25.6389 20.6855 25.319 21.5162C24.9889 22.3727 24.5401 23.0951 23.8179 23.8174C23.0956 24.5398 22.3683 24.9835 21.5171 25.3189C20.6917 25.6388 19.7476 25.8607 18.3599 25.9226C16.9722 25.9845 16.5337 26 13 26C9.46627 26 9.02778 25.9845 7.64008 25.9226C6.25754 25.8607 5.31349 25.6388 4.48294 25.3189C3.62659 24.9887 2.90436 24.5398 2.18214 23.8174C1.45992 23.0951 1.01627 22.3675 0.680952 21.5162C0.361111 20.6906 0.139286 19.7464 0.0773811 18.3584C0.0154762 16.9704 0 16.5319 0 12.9974C0 9.46299 0.0154762 9.02441 0.0773811 7.63644C0.139286 6.25362 0.361111 5.30939 0.680952 4.47867C1.01111 3.62215 1.45992 2.89978 2.18214 2.17742C2.90436 1.45505 3.63175 1.01131 4.48294 0.675928C5.30833 0.356023 6.25238 0.134154 7.64008 0.0722366C9.03294 0.0154793 9.47659 0 13.0052 0Z"
              fill="currentColor"/>
        <path d="M13.0052 6.32568C16.6885 6.32568 19.6805 9.31318 19.6805 13.0024C19.6805 16.6916 16.6936 19.6791 13.0052 19.6791C9.31666 19.6791 6.32976 16.6916 6.32976 13.0024C6.32976 9.31318 9.31666 6.32568 13.0052 6.32568ZM13.0052 17.3314C15.3988 17.3314 17.3385 15.3914 17.3385 12.9972C17.3385 10.6031 15.3988 8.66305 13.0052 8.66305C10.6115 8.66305 8.67182 10.6031 8.67182 12.9972C8.67182 15.3914 10.6115 17.3314 13.0052 17.3314Z"
              fill="white"/>
        <path d="M6.0667 7.61562C5.20627 7.61562 4.50876 6.91784 4.50876 6.05708C4.50876 5.19632 5.20627 4.49854 6.0667 4.49854C6.92712 4.49854 7.62463 5.19632 7.62463 6.05708C7.62463 6.91784 6.92712 7.61562 6.0667 7.61562Z"
              fill="white"/>
    </g>
    <g id="telegram-white">
        <path clip-rule="evenodd"
              d="m21.997 12c0 5.5228-4.4772 10-10 10-5.52285 0-10.00001-4.4772-10.00001-10 0-5.52285 4.47716-10 10.00001-10 5.5228 0 10 4.47715 10 10zm-9.6417-2.61756c-.9726.40456-2.91654 1.24186-5.83174 2.51196-.47338.1883-.72136.3725-.74394.5525-.03815.3044.34296.4242.86193.5874.07059.0222.14373.0452.21871.0695.51059.166 1.19741.3602 1.55446.3679.32388.007.68537-.1265 1.08446-.4006 2.72372-1.8386 4.12982-2.7679 4.21802-2.788.0623-.0141.1486-.0319.2071.0201s.0527.1504.0465.1768c-.0377.161-1.5337 1.5518-2.3079 2.2715-.2413.2244-.4125.3835-.4475.4199-.0784.0814-.1583.1584-.2351.2324-.4743.4573-.8301.8002.0197 1.3602.4083.2691.7351.4916 1.0611.7136.356.2425.7111.4843 1.1706.7855.117.0767.2288.1564.3377.234.4143.2954.7865.5608 1.2464.5184.2672-.0245.5432-.2758.6834-1.0252.3313-1.771.9825-5.6083 1.133-7.18949.0132-.13853-.0034-.31583-.0168-.39366-.0133-.07783-.0411-.18873-.1423-.27082-.1198-.09722-.3048-.11772-.3875-.11633-.3761.0067-.9532.20735-3.7303 1.36244z"
              fill-rule="evenodd" stroke="#fff" stroke-linejoin="round"/>
    </g>
    <g id="telegram-blue">
        <path d="m0 16c0 8.8366 7.16344 16 16 16 8.8366 0 16-7.1634 16-16 0-8.83656-7.1634-16-16-16-8.83656 0-16 7.16344-16 16z"
              fill="#08c"/>
        <path d="m8.09992 15.7083c4.29498-1.8712 7.15898-3.1049 8.59198-3.7009 4.0915-1.7018 4.9416-1.9974 5.4958-2.0073.1218-.00205.3943.0282.5709.1714.149.1209.19.2843.2097.399.0196.1146.044.3759.0246.58-.2217 2.3296-1.1811 7.983-1.6692 10.5922-.2065 1.1041-.6132 1.4743-1.0069 1.5105-.8555.0787-1.5052-.5654-2.3339-1.1086-1.2967-.85-2.0292-1.3792-3.2879-2.2086-1.4546-.9586-.5116-1.4854.3174-2.3464.2169-.2253 3.9866-3.6541 4.0595-3.9652.0092-.0389.0176-.1839-.0685-.2605-.0862-.0765-.2133-.0503-.3051-.0295-.13.0295-2.2015 1.3987-6.2144 4.1075-.588.4038-1.1206.6005-1.5977.5902-.5261-.0114-1.53798-.2975-2.29022-.542-.92265-.2999-1.65596-.4585-1.5921-.9678.03326-.2653.3986-.5367 1.09604-.814z"
              fill="#fff"/>
    </g>
    <g id="arrow-top">
        <path d="M1.08333 23.8332H24.9167C25.233 23.8332 25.4926 23.9346 25.6956 24.1376C25.8985 24.3406 26 24.6002 26 24.9166C26 25.2329 25.8985 25.4926 25.6956 25.6956C25.4926 25.8985 25.233 26 24.9167 26H1.08333C0.767 26 0.507361 25.8985 0.304417 25.6956C0.101472 25.4926 0 25.2329 0 24.9166C0 24.6002 0.101472 24.3406 0.304417 24.1376C0.507361 23.9346 0.767 23.8332 1.08333 23.8332ZM14.0833 4.26436V19.5005H11.9167V4.02817L3.68983 12.2557L2.16667 10.7324L12.8982 0L23.6297 10.7324L22.0718 12.2557L14.0833 4.26436Z"
              fill="white" fill-opacity="0.96"/>
    </g>

    <!--    services-->
    <g id="video-play">
        <path d="M36.5 4.5625C45.5307 4.79975 53.052 7.9243 59.0638 13.9362C65.0757 19.948 68.2002 27.4693 68.4375 36.5C68.2002 45.5307 65.0757 53.052 59.0638 59.0638C53.052 65.0757 45.5307 68.2002 36.5 68.4375C27.4693 68.2002 19.948 65.0757 13.9362 59.0638C7.9243 53.052 4.79975 45.5307 4.5625 36.5C4.79975 27.4693 7.9243 19.948 13.9362 13.9362C19.948 7.9243 27.4693 4.79975 36.5 4.5625ZM36.5 63.875C44.2471 63.6849 50.6985 61.0113 55.8541 55.8541C61.0097 50.697 63.6834 44.2456 63.875 36.5C63.6849 28.7529 61.0113 22.3015 55.8541 17.1459C50.697 11.9902 44.2456 9.31663 36.5 9.125C28.7529 9.3151 22.3015 11.9887 17.1459 17.1459C11.9902 22.303 9.31663 28.7544 9.125 36.5C9.3151 44.2471 11.9887 50.6985 17.1459 55.8541C22.303 61.0097 28.7544 63.6834 36.5 63.875ZM33.0781 46.1953L47.6918 36.5L33.0781 26.8047V46.1953ZM33.8629 21.8156L51.6133 33.6507C52.6109 34.364 53.1098 35.3145 53.1098 36.5023C53.1098 37.6901 52.6109 38.6406 51.6133 39.3538L33.8629 51.189C33.2926 51.5692 32.6987 51.7714 32.0812 51.7958C31.4638 51.8201 30.8813 51.6772 30.3338 51.3669C29.7863 51.0567 29.3468 50.6407 29.0152 50.1191C28.6837 49.5974 28.5171 49.0035 28.5156 48.3374V24.6694C28.5156 24.0033 28.6822 23.4094 29.0152 22.8878C29.3483 22.3661 29.7878 21.9502 30.3338 21.6399C30.8798 21.3297 31.4622 21.1867 32.0812 21.2111C32.7002 21.2354 33.2941 21.4377 33.8629 21.8179V21.8156Z"
              fill="#2157F2"/>
    </g>
    <g id="edit">
        <path d="M14.3814 48.6342L28.4021 56.7279L44.5896 28.6889L30.5689 20.5951L14.3814 48.6342ZM12.6471 52.9701L15.0312 63.6654L25.5092 60.3401L12.6471 52.9701ZM32.8814 16.5483L46.9021 24.642L51.0207 17.5588L37 9.46506L32.8814 16.5483ZM7.51562 51.2358L35.2656 3.17969L57.3061 15.8984L29.5561 63.9545L11.6342 69.5924L7.51562 51.2358ZM35.2656 69.5924V64.9674H67.6406V69.5924H35.2656Z"
              fill="#2157F2"/>
    </g>
    <g id="notebook-2">
        <path d="M25.0938 9.125V63.875H20.5312V9.125H13.6875V63.875H59.3125V9.125H25.0938ZM11.4062 4.5625H61.5938C62.2599 4.5625 62.8066 4.77618 63.234 5.20353C63.6613 5.63089 63.875 6.17763 63.875 6.84375V66.1562C63.875 66.8224 63.6613 67.3691 63.234 67.7965C62.8066 68.2238 62.2599 68.4375 61.5938 68.4375H11.4062C10.7401 68.4375 10.1934 68.2238 9.76603 67.7965C9.33868 67.3691 9.125 66.8224 9.125 66.1562V6.84375C9.125 6.17763 9.33868 5.63089 9.76603 5.20353C10.1934 4.77618 10.7401 4.5625 11.4062 4.5625ZM34.2188 18.25H47.9062C49.4271 18.25 50.1875 19.0104 50.1875 20.5312C50.1875 22.0521 49.4271 22.8125 47.9062 22.8125H34.2188C32.6979 22.8125 31.9375 22.0521 31.9375 20.5312C31.9375 19.0104 32.6979 18.25 34.2188 18.25ZM34.2188 31.9375H47.9062C49.4271 31.9375 50.1875 32.6979 50.1875 34.2188C50.1875 35.7396 49.4271 36.5 47.9062 36.5H34.2188C32.6979 36.5 31.9375 35.7396 31.9375 34.2188C31.9375 32.6979 32.6979 31.9375 34.2188 31.9375ZM34.2188 45.625H47.9062C49.4271 45.625 50.1875 46.3854 50.1875 47.9062C50.1875 49.4271 49.4271 50.1875 47.9062 50.1875H34.2188C32.6979 50.1875 31.9375 49.4271 31.9375 47.9062C31.9375 46.3854 32.6979 45.625 34.2188 45.625Z"
              fill="#2157F2"/>
    </g>
    <!--    contacts-->
    <g id="location">
        <path clip-rule="evenodd"
              d="m15.5168 11.5352c2.2509-2.26426 5.3025-3.5352 8.4832-3.5352s6.2323 1.27094 8.4832 3.5352c2.2511 2.2644 3.5168 5.3368 3.5168 8.5417 0 5.5266-3.0639 10.5278-6.2565 14.2211-1.5843 1.8327-3.1712 3.3095-4.3621 4.3278-.566.4839-1.0409.8629-1.3814 1.1259-.3405-.263-.8154-.642-1.3814-1.1259-1.1909-1.0183-2.7778-2.4951-4.3621-4.3278-3.1926-3.6933-6.2565-8.6945-6.2565-14.2211 0-3.2049 1.2657-6.2773 3.5168-8.5417zm7.9068 30.282c.0004.0002.0007.0004.5764-.8172.5757.8176.576.8174.5764.8172-.3453.2431-.8075.2431-1.1528 0zm0 0 .5764-.8172.5764.8172.0036-.0026.0091-.0064.0318-.0228c.0273-.0196.0666-.048.117-.085.1008-.0741.2463-.1826.4302-.3239.3676-.2827.889-.6971 1.513-1.2306 1.2466-1.0659 2.9097-2.6131 4.5754-4.54 3.3074-3.826 6.7435-9.2864 6.7435-15.529 0-3.7315-1.4736-7.3114-4.0984-9.9518-2.6251-2.64056-6.1867-4.1251-9.9016-4.1251s-7.2765 1.48454-9.9016 4.1251c-2.6248 2.6404-4.0984 6.2203-4.0984 9.9518 0 6.2426 3.4361 11.703 6.7435 15.529 1.6657 1.9269 3.3288 3.4741 4.5754 4.54.624.5335 1.1454.9479 1.513 1.2306.1839.1413.3294.2498.4302.3239.0504.037.0897.0654.117.085l.0318.0228.0091.0064zm-3.4236-21.8172c0-2.2091 1.7909-4 4-4s4 1.7909 4 4-1.7909 4-4 4-4-1.7909-4-4zm4-6c-3.3137 0-6 2.6863-6 6s2.6863 6 6 6 6-2.6863 6-6-2.6863-6-6-6z"
              fill="#2350D6" fill-rule="evenodd"/>
    </g>
    <g id="phone">
        <path clip-rule="evenodd"
              d="m21.0047 21.342c.6282-.5377.9915-1.322.9953-2.1489v-2.5153c0-.8766-.5708-1.651-1.4081-1.9104l-3.8195-1.1834c-.6249-.1936-1.305-.0693-1.8211.3328l-1.5518 1.209c-.8641-.6053-1.6877-1.2939-2.4596-2.0657-.7718-.7719-1.46039-1.5955-2.06571-2.4596l1.20171-1.5261c.4064-.51623.5334-1.19919.3397-1.82704l-1.18408-3.83709c-.25871-.8384-1.03367-1.41027-1.91107-1.41027h-2.51355c-.82689.00381-1.61125.3671-2.14893.99532-.4444.51924-.69591 1.18165-.6533 1.86377.26859 4.29915 2.04525 8.52121 5.33012 11.80611 3.28491 3.2849 7.50701 5.0615 11.80611 5.3301.6821.0426 1.3445-.2089 1.8638-.6533zm-12.91617-11.36019c-.27291.34659-.28648.83109-.0334 1.19239.63854.9116 1.36454 1.7798 2.17767 2.593.8132.8131 1.6814 1.5391 2.593 2.1777.3598.252.8419.2397 1.1884-.0303l1.5517-1.209c.2581-.201.5981-.2632.9106-.1664l3.8194 1.1834c.4187.1297.7041.5169.7041.9552v2.5128c-.0031.5355-.2386 1.0434-.6456 1.3917-.3454.2957-.7581.4395-1.1511.415-4.0654-.254-8.0554-1.9332-11.1614-5.0392-3.10603-3.106-4.78519-7.096-5.03918-11.16137-.02455-.393.1193-.80569.41498-1.15117.3483-.40695.85618-.6425 1.39176-.64556h2.51099c.4387 0 .82618.28594.95554.70513l1.18407 3.8371c.09687.31392.03337.6554-.16987.91351z"
              fill="#2350D6" fill-rule="evenodd"/>
    </g>
    <g id="mail">
        <path d="m3.84674576 17.8602756c.19747034.0956834.41909523.1493366.65325152.1493366h15.00000272c.234157 0 .4557825-.0536535.6532533-.1493375l-5.9086286-5.5610622-1.9267711 1.5867526c-.1846279.1520465-.4510793.1520465-.6357072 0l-1.92677107-1.5867526zm-.70365326-.7104533c.0046301-.0047126.00937185-.0093545.01422515-.0139223l5.81988317-5.4775371-5.79505445-4.77239778c-.01263654-.01040657-.02463114-.0213036-.03597893-.03264079-.09369981.19580951-.14617016.41511504-.14617016.64667567v9.0096122c0 .2290153.05132317.4460434.14309522.6402101zm17.7138132-.0000019c.0917715-.1941662.1430943-.4111936.1430943-.6402082v-9.0096122c0-.23155991-.05247-.45086478-.1461693-.64667383-.0113472.01133652-.0233412.02223294-.0359771.03263895l-5.7950544 4.77239778 5.8198831 5.4775371c.0048527.0045672.0095939.0092085.0142234.0139204zm-.7124776-11.00472344c-.1952395-.09302717-.413753-.14509696-.6444281-.14509696h-15.00000272c-.23067439 0-.44918731.05206949-.64442642.14509614l8.14442914 6.70717696zm-15.64443082-1.14509696h15.00000272c1.3807119 0 2.5 1.11928813 2.5 2.5v9.0096122c0 1.3807119-1.1192881 2.5-2.5 2.5h-15.00000272c-1.38071187 0-2.5-1.1192881-2.5-2.5v-9.0096122c0-1.38071187 1.11928813-2.5 2.5-2.5z"
              fill="#2350D6"/>
    </g>
    <!--    skills-->
    <g id="Ps">
        <path d="m2 12.1333c0-3.54697 0-5.32047.69029-6.67524.6072-1.19169 1.57608-2.16057 2.76777-2.76777 1.35477-.69029 3.12827-.69029 6.67524-.69029h7.7334c3.547 0 5.3205 0 6.6752.69029 1.1917.6072 2.1606 1.57608 2.7678 2.76777.6903 1.35477.6903 3.12827.6903 6.67524v7.7334c0 3.547 0 5.3205-.6903 6.6752-.6072 1.1917-1.5761 2.1606-2.7678 2.7678-1.3547.6903-3.1282.6903-6.6752.6903h-7.7334c-3.54697 0-5.32047 0-6.67524-.6903-1.19169-.6072-2.16057-1.5761-2.76777-2.7678-.69029-1.3547-.69029-3.1282-.69029-6.6752z"
              fill="#001e36"/>
        <g fill="#31a8ff">
            <path d="m8 22.5162v-12.3128c0-.0837.035-.1316.11667-.1316 1.20563 0 2.41073-.0718 3.61663-.0718 1.9569 0 4.0757.6691 4.8184 2.7162.175.5026.2683 1.0171.2683 1.5556 0 1.0291-.2333 1.8786-.7 2.5487-1.3036 1.8718-3.563 1.8427-5.5883 1.8427v3.8411c.0158.1137-.0811.1675-.175.1675h-2.2167c-.09333 0-.14-.0479-.14-.1556zm2.5433-10.135v4.0205c.8031.0588 1.6434.0652 2.415-.1914.8519-.2458 1.3184-.9831 1.3184-1.8667.0236-.7529-.3866-1.4753-1.085-1.747-.7623-.317-1.8255-.336-2.6484-.2154z"/>
            <path d="m24.0967 15.6074c-.353-.1861-.729-.3222-1.1177-.4046-.4994-.1175-2.4692-.5291-2.47.5009.0175.575.9303.8567 1.3336 1.021 1.4159.4861 3.0181 1.355 2.9866 3.1017.0433 2.1744-2.0635 3.0437-3.8694 3.0439-.9401.0097-1.9195-.1359-2.7799-.5395-.0822-.0435-.135-.1364-.1315-.2312v-2.0806c-.0093-.0834.0803-.1563.1503-.0963.843.5098 1.8422.7574 2.8175.7706.4305 0 1.2837-.0417 1.2773-.6743 0-.607-1.0207-.8861-1.4276-1.0403-.5898-.2105-1.149-.5022-1.6623-.8669-.7174-.5117-1.1674-1.3321-1.1552-2.2347-.0042-2.0474 1.9351-2.9664 3.6816-2.9668.8164-.0068 1.6932.0537 2.4532.3853.1093.0321.1319.1473.1315.2504v1.9458c.0069.1208-.1272.1619-.218.1156z"/>
        </g>
    </g>
    <g id="Ae">
        <path d="m2 12.1333c0-3.54697 0-5.32047.69029-6.67524.6072-1.19169 1.57608-2.16057 2.76777-2.76777 1.35477-.69029 3.12827-.69029 6.67524-.69029h7.7334c3.547 0 5.3205 0 6.6752.69029 1.1917.6072 2.1606 1.57608 2.7678 2.76777.6903 1.35477.6903 3.12827.6903 6.67524v7.7334c0 3.547 0 5.3205-.6903 6.6752-.6072 1.1917-1.5761 2.1606-2.7678 2.7678-1.3547.6903-3.1282.6903-6.6752.6903h-7.7334c-3.54697 0-5.32047 0-6.67524-.6903-1.19169-.6072-2.16057-1.5761-2.76777-2.7678-.69029-1.3547-.69029-3.1282-.69029-6.6752z"
              fill="#00005b"/>
        <g fill="#99f">
            <path d="m13.7893 19.5638h-4.3389l-.88281 2.8181c-.02451.1045-.12074.1785-.22541.1734h-2.19764c-.12532 0-.16915-.0706-.13148-.2119l3.75663-11.0508c.0376-.1155.07514-.2285.11274-.3763.04913-.2571.07429-.5183.07513-.7802-.01076-.0774.05604-.14596.13144-.1349h2.9866c.0875 0 .1375.0321.1502.0963l4.2639 12.2651c.0375.1286-.0001.1928-.1127.1927h-2.4419c-.0856.0097-.1674-.049-.1878-.1349zm-3.6627-2.3761h2.9678c-.4876-1.6662-1.0379-3.3104-1.4839-4.9896-.5054 1.7418-.9721 3.3572-1.4839 4.9896z"/>
            <path d="m20.6608 18.4757c.1727 1.4309 1.3743 2.1131 2.7048 2.084.7503-.0147 1.5521-.1312 2.2532-.4149.0624-.0511.0939-.0192.0939.0964v1.8301c.0059.0952-.0339.1803-.1127.2312-.8714.3958-1.8716.5152-2.8167.5-2.8178 0-4.7529-1.9854-4.7521-4.874-.0074-2.7374 1.7685-5.0468 4.5267-5.0468 2.3381-.0606 3.9568 1.8113 3.9633 4.1414 0 .4243-.0237.8502-.0751 1.2714-.01.0868-.0839.1542-.1691.1542-1.8673 0-3.7437.027-5.6162.027zm0-1.755c1.0407 0 2.0874.0368 3.1274-.0096.1563-.016.2724-.0457.2724-.2082-.0217-.8638-.7507-1.5743-1.5966-1.5412-1.022-.0634-1.6761.7994-1.8032 1.759z"/>
        </g>
    </g>
    <g id="Ai">
        <path d="m2 12.1333c0-3.54697 0-5.32047.69029-6.67524.6072-1.19169 1.57608-2.16057 2.76777-2.76777 1.35477-.69029 3.12827-.69029 6.67524-.69029h7.7334c3.547 0 5.3205 0 6.6752.69029 1.1917.6072 2.1606 1.57608 2.7678 2.76777.6903 1.35477.6903 3.12827.6903 6.67524v7.7334c0 3.547 0 5.3205-.6903 6.6752-.6072 1.1917-1.5761 2.1606-2.7678 2.7678-1.3547.6903-3.1282.6903-6.6752.6903h-7.7334c-3.54697 0-5.32047 0-6.67524-.6903-1.19169-.6072-2.16057-1.5761-2.76777-2.7678-.69029-1.3547-.69029-3.1282-.69029-6.6752z"
              fill="#300"/>
        <g fill="#ff9a00">
            <path d="m15.5686 19.5963h-4.3389l-.8828 2.8127c-.0245.1045-.1207.1785-.2254.1733h-2.19766c-.12533 0-.16915-.0706-.13148-.2119l3.75664-11.0966c.0376-.1156.0752-.2472.1127-.3949.0492-.2571.0743-.5183.0752-.7802-.0108-.0774.0572-.14576.1314-.13492h2.9866c.0875 0 .1375.03212.1502.09632l4.2639 12.3296c.0375.1285 0 .1927-.1127.1926h-2.4419c-.0856.0098-.1674-.0489-.1878-.1348zm-3.6627-2.4274h2.9678c-.4876-1.6662-1.0379-3.3105-1.4839-4.9896-.4812 1.682-1.0062 3.3572-1.4839 4.9896z"/>
            <path d="m21.8045 12.0058c-.1916.0079-.3826-.0258-.5607-.0988-.178-.073-.339-.1838-.4724-.325-.133-.1474-.2364-.3202-.3041-.5087-.0677-.1884-.0984-.3887-.0904-.5894-.0068-.1987.0273-.3966.1001-.58085.0729-.18424.1828-.35065.3226-.48837.1384-.13629.3018-.24307.4808-.31416.1789-.0711.3698-.10509.5616-.10003.4509 0 .8046.13807 1.0613.41419.1296.1435.2303.3118.2964.49527.066.18345.0962.37855.0886.57395.0079.2014-.0238.4025-.0932.5911-.0693.1886-.175.361-.3106.507-.1417.1433-.3109.2549-.4967.3279-.1859.0729-.3845.1056-.5833.0959zm-1.2961 10.3838v-9.2086c0-.1156.0499-.1734.1503-.1734h2.3104c.1 0 .1501.0578.1502.1734v9.2086c0 .1286-.0501.1928-.1502.1927h-2.2916c-.1127 0-.1691-.0642-.1691-.1927z"/>
        </g>
    </g>
    <g id="figma">
        <path d="m32 16c0-8.83656-7.1634-16-16-16-8.83656 0-16 7.16344-16 16 0 8.8366 7.16344 16 16 16 8.8366 0 16-7.1634 16-16z"
              fill="#000"/>
        <path d="m15.9834 16c0-1.4727 1.1939-2.6667 2.6666-2.6667 1.4728 0 2.6667 1.194 2.6667 2.6667 0 1.4728-1.1939 2.6667-2.6667 2.6667-1.4727 0-2.6666-1.1939-2.6666-2.6667z"
              fill="#1abcfe"/>
        <path d="m10.65 21.3333c0-1.4727 1.1939-2.6666 2.6667-2.6666h2.6667v2.6666c0 1.4728-1.1939 2.6667-2.6667 2.6667s-2.6667-1.1939-2.6667-2.6667z"
              fill="#0acf83"/>
        <path d="m15.9834 8v5.3333h2.6666c1.4728 0 2.6667-1.1939 2.6667-2.6666 0-1.47279-1.1939-2.6667-2.6667-2.6667z"
              fill="#ff7262"/>
        <path d="m10.65 10.6667c0 1.4727 1.1939 2.6666 2.6667 2.6666h2.6667v-5.3333h-2.6667c-1.4728 0-2.6667 1.19391-2.6667 2.6667z"
              fill="#f24e1e"/>
        <path d="m10.65 16c0 1.4728 1.1939 2.6667 2.6667 2.6667h2.6667v-5.3334h-2.6667c-1.4728 0-2.6667 1.194-2.6667 2.6667z"
              fill="#a259ff"/>
    </g>
    <g id="wave">
        <path d="M-1201.13 44.7823C-1201.13 44.7823 -1099.63 4.58005 -959.747 1.09382C-795.61 -2.99693 -797.448 43.8551 -631.47 44.7823C-458.116 45.7507 -452.498 1.45838 -279.055 1.09382C-102.606 0.722937 -93.2496 46.1381 83.0148 44.7823C248.904 43.5064 245.484 2.62348 411.292 1.09382C589.739 -0.552463 601.88 45.1485 780.603 44.7823C956.299 44.4224 964.581 1.62913 1140.26 1.09382C1320.49 0.544628 1334.92 47.4908 1514.4 44.7823C1674.03 42.3734 1664.41 4.47381 1823.36 1.09382C2012.07 -2.91869 2038.61 44.0492 2228.88 44.7823C2426.27 45.5428 2458.7 0.593025 2656.13 1.09382C2848.79 1.58254 2876.48 43.1002 3068.89 44.7823C3278.92 46.6186 3326.67 -3.87903 3534.75 1.09382C3715.81 5.42086 3889.58 50.6335 3889.58 50.6335V71.5385V152.59H-1201.13V44.7823Z"
              fill="#24335C"/>
    </g>
</svg>