<svg fill="none" height="24" viewBox="0 0 24 24" width="24" xmlns="http://www.w3.org/2000/svg"><path clip-rule="evenodd" d="m21.0047 21.342c.6282-.5377.9915-1.322.9953-2.1489v-2.5153c0-.8766-.5708-1.651-1.4081-1.9104l-3.8195-1.1834c-.6249-.1936-1.305-.0693-1.8211.3328l-1.5518 1.209c-.8641-.6053-1.6877-1.2939-2.4596-2.0657-.7718-.7719-1.46039-1.5955-2.06571-2.4596l1.20171-1.5261c.4064-.51623.5334-1.19919.3397-1.82704l-1.18408-3.83709c-.25871-.8384-1.03367-1.41027-1.91107-1.41027h-2.51355c-.82689.00381-1.61125.3671-2.14893.99532-.4444.51924-.69591 1.18165-.6533 1.86377.26859 4.29915 2.04525 8.52121 5.33012 11.80611 3.28491 3.2849 7.50701 5.0615 11.80611 5.3301.6821.0426 1.3445-.2089 1.8638-.6533zm-12.91617-11.36019c-.27291.34659-.28648.83109-.0334 1.19239.63854.9116 1.36454 1.7798 2.17767 2.593.8132.8131 1.6814 1.5391 2.593 2.1777.3598.252.8419.2397 1.1884-.0303l1.5517-1.209c.2581-.201.5981-.2632.9106-.1664l3.8194 1.1834c.4187.1297.7041.5169.7041.9552v2.5128c-.0031.5355-.2386 1.0434-.6456 1.3917-.3454.2957-.7581.4395-1.1511.415-4.0654-.254-8.0554-1.9332-11.1614-5.0392-3.10603-3.106-4.78519-7.096-5.03918-11.16137-.02455-.393.1193-.80569.41498-1.15117.3483-.40695.85618-.6425 1.39176-.64556h2.51099c.4387 0 .82618.28594.95554.70513l1.18407 3.8371c.09687.31392.03337.6554-.16987.91351z" fill="#000" fill-rule="evenodd"/></svg>