<svg fill="none" height="92" viewBox="0 0 92 92" width="92" xmlns="http://www.w3.org/2000/svg"><g fill="#00d95f"><path d="m22.8906 66.8405 3.2847-12.2024c-2.649-4.7534-3.4906-10.3003-2.3704-15.6227s4.1271-10.0634 8.4689-13.353c4.3418-3.2895 9.7273-4.907 15.1683-4.5556 5.4409.3514 10.5723 2.6482 14.4525 6.4688 3.8803 3.8206 6.2491 8.9088 6.6718 14.3309.4226 5.4221-1.1291 10.8143-4.3706 15.1873s-7.9553 7.4333-13.2763 8.6195c-5.3211 1.1861-10.8925.4185-15.6919-2.162zm12.9318-7.8555.763.4515c3.4763 2.0553 7.5366 2.9058 11.5482 2.419 4.0115-.4868 7.7489-2.2836 10.6298-5.1103s4.7434-6.5246 5.2973-10.5173c.5539-3.9928-.2319-8.0562-2.235-11.557s-5.1109-6.2424-8.8392-7.7975c-3.7283-1.555-7.8675-1.8362-11.7728-.7998-3.9052 1.0364-7.357 3.3323-9.8175 6.5299-2.4605 3.1975-3.7915 7.1171-3.7855 11.1479-.0032 3.3423.9234 6.6198 2.6769 9.4678l.4785.7869-1.8363 6.8106z"/><path clip-rule="evenodd" d="m54.3404 46.8847c-.4473-.3598-.971-.6131-1.5313-.7405-.5602-.1274-1.1422-.1256-1.7017.0053-.8405.3482-1.3837 1.6639-1.9268 2.3218-.1145.1577-.2828.2683-.4733.311-.1905.0428-.39.0147-.5612-.0789-3.0774-1.2022-5.6568-3.4069-7.3194-6.2559-.1419-.1778-.209-.4035-.1873-.6297.0218-.2262.1306-.4351.3036-.5828.6058-.5982 1.0506-1.3391 1.2932-2.1541.0539-.8991-.1526-1.7946-.5948-2.5798-.3419-1.1009-.9926-2.0811-1.8751-2.8249-.4552-.2042-.96-.2726-1.4533-.1971s-.9542.2918-1.3271.6228c-.6473.557-1.161 1.2518-1.5034 2.0331-.3425.7813-.5048 1.6293-.4751 2.4815.0019.4786.0628.9551.181 1.4189.3003 1.1143.7621 2.179 1.3708 3.1602.4391.7517.9183 1.4793 1.4354 2.1799 1.6805 2.3012 3.793 4.255 6.2202 5.7529 1.218.7613 2.5197 1.3802 3.8795 1.8446 1.4126.6387 2.9722.8838 4.5132.7094.878-.1325 1.7099-.4783 2.4225-1.0069s1.284-1.2237 1.664-2.0243c.2232-.4837.291-1.0243.1939-1.5479-.2327-1.0706-1.6682-1.7026-2.5475-2.2186z" fill-rule="evenodd"/></g></svg>